solid OpenSCAD_Model
  facet normal 0 1 0
    outer loop
      vertex 10.147 92 2.99278
      vertex 9.85297 92 2.99278
      vertex 10 92 3
    endloop
  endfacet
  facet normal 0 1 0
    outer loop
      vertex 10.2926 92 2.97118
      vertex 9.85297 92 2.99278
      vertex 10.147 92 2.99278
    endloop
  endfacet
  facet normal 0 1 0
    outer loop
      vertex 10.2926 92 2.97118
      vertex 9.70736 92 2.97118
      vertex 9.85297 92 2.99278
    endloop
  endfacet
  facet normal 0 1 0
    outer loop
      vertex 10.4354 92 2.93541
      vertex 9.70736 92 2.97118
      vertex 10.2926 92 2.97118
    endloop
  endfacet
  facet normal 0 1 0
    outer loop
      vertex 10.4354 92 2.93541
      vertex 9.56457 92 2.93541
      vertex 9.70736 92 2.97118
    endloop
  endfacet
  facet normal 0 1 0
    outer loop
      vertex 10.574 92 2.88582
      vertex 9.56457 92 2.93541
      vertex 10.4354 92 2.93541
    endloop
  endfacet
  facet normal 0 1 0
    outer loop
      vertex 10.574 92 2.88582
      vertex 9.42597 92 2.88582
      vertex 9.56457 92 2.93541
    endloop
  endfacet
  facet normal 0 1 0
    outer loop
      vertex 10.7071 92 2.82288
      vertex 9.42597 92 2.88582
      vertex 10.574 92 2.88582
    endloop
  endfacet
  facet normal 0 1 0
    outer loop
      vertex 10.7071 92 2.82288
      vertex 9.2929 92 2.82288
      vertex 9.42597 92 2.88582
    endloop
  endfacet
  facet normal 0 1 0
    outer loop
      vertex 10.8334 92 2.7472
      vertex 9.2929 92 2.82288
      vertex 10.7071 92 2.82288
    endloop
  endfacet
  facet normal 0 1 0
    outer loop
      vertex 10.8334 92 2.7472
      vertex 9.16664 92 2.7472
      vertex 9.2929 92 2.82288
    endloop
  endfacet
  facet normal 0 1 0
    outer loop
      vertex 10.9516 92 2.65952
      vertex 9.16664 92 2.7472
      vertex 10.8334 92 2.7472
    endloop
  endfacet
  facet normal 0 1 0
    outer loop
      vertex 10.9516 92 2.65952
      vertex 9.04841 92 2.65952
      vertex 9.16664 92 2.7472
    endloop
  endfacet
  facet normal 0 1 0
    outer loop
      vertex 11.0607 92 2.56066
      vertex 9.04841 92 2.65952
      vertex 10.9516 92 2.65952
    endloop
  endfacet
  facet normal 0 1 0
    outer loop
      vertex 11.0607 92 2.56066
      vertex 8.93934 92 2.56066
      vertex 9.04841 92 2.65952
    endloop
  endfacet
  facet normal 0 1 0
    outer loop
      vertex 11.1595 92 2.45159
      vertex 8.93934 92 2.56066
      vertex 11.0607 92 2.56066
    endloop
  endfacet
  facet normal 0 1 0
    outer loop
      vertex 11.1595 92 2.45159
      vertex 8.84048 92 2.45159
      vertex 8.93934 92 2.56066
    endloop
  endfacet
  facet normal 0 1 0
    outer loop
      vertex 11.2472 92 2.33335
      vertex 8.84048 92 2.45159
      vertex 11.1595 92 2.45159
    endloop
  endfacet
  facet normal 0 1 0
    outer loop
      vertex 11.2472 92 2.33335
      vertex 8.7528 92 2.33335
      vertex 8.84048 92 2.45159
    endloop
  endfacet
  facet normal 0 1 0
    outer loop
      vertex 11.3229 92 2.20709
      vertex 8.7528 92 2.33335
      vertex 11.2472 92 2.33335
    endloop
  endfacet
  facet normal 0 1 0
    outer loop
      vertex 11.3229 92 2.20709
      vertex 8.67712 92 2.20709
      vertex 8.7528 92 2.33335
    endloop
  endfacet
  facet normal 0 1 0
    outer loop
      vertex 11.3858 92 2.07402
      vertex 8.67712 92 2.20709
      vertex 11.3229 92 2.20709
    endloop
  endfacet
  facet normal 0 1 0
    outer loop
      vertex 8.58769 92 2
      vertex 8.67712 92 2.20709
      vertex 11.3858 92 2.07402
    endloop
  endfacet
  facet normal 0 1 0
    outer loop
      vertex 8.67712 92 2.20709
      vertex 8.58769 92 2
      vertex 8.61418 92 2.07402
    endloop
  endfacet
  facet normal 0 1 -0
    outer loop
      vertex 10 92 2.04281e-14
      vertex 8.58769 92 2
      vertex 11.4354 92 1.93543
    endloop
  endfacet
  facet normal 0 1 0
    outer loop
      vertex 11.4354 92 1.93543
      vertex 8.58769 92 2
      vertex 11.3858 92 2.07402
    endloop
  endfacet
  facet normal 0 1 0
    outer loop
      vertex -9.85297 92 2.99278
      vertex -10.147 92 2.99278
      vertex -10 92 3
    endloop
  endfacet
  facet normal 0 1 0
    outer loop
      vertex -9.70736 92 2.97118
      vertex -10.147 92 2.99278
      vertex -9.85297 92 2.99278
    endloop
  endfacet
  facet normal 0 1 0
    outer loop
      vertex -9.70736 92 2.97118
      vertex -10.2926 92 2.97118
      vertex -10.147 92 2.99278
    endloop
  endfacet
  facet normal 0 1 0
    outer loop
      vertex -9.56457 92 2.93541
      vertex -10.2926 92 2.97118
      vertex -9.70736 92 2.97118
    endloop
  endfacet
  facet normal 0 1 0
    outer loop
      vertex -9.56457 92 2.93541
      vertex -10.4354 92 2.93541
      vertex -10.2926 92 2.97118
    endloop
  endfacet
  facet normal 0 1 0
    outer loop
      vertex -9.42597 92 2.88582
      vertex -10.4354 92 2.93541
      vertex -9.56457 92 2.93541
    endloop
  endfacet
  facet normal 0 1 0
    outer loop
      vertex -9.42597 92 2.88582
      vertex -10.574 92 2.88582
      vertex -10.4354 92 2.93541
    endloop
  endfacet
  facet normal 0 1 0
    outer loop
      vertex -9.2929 92 2.82288
      vertex -10.574 92 2.88582
      vertex -9.42597 92 2.88582
    endloop
  endfacet
  facet normal 0 1 0
    outer loop
      vertex -9.2929 92 2.82288
      vertex -10.7071 92 2.82288
      vertex -10.574 92 2.88582
    endloop
  endfacet
  facet normal 0 1 0
    outer loop
      vertex -9.16664 92 2.7472
      vertex -10.7071 92 2.82288
      vertex -9.2929 92 2.82288
    endloop
  endfacet
  facet normal 0 1 0
    outer loop
      vertex -9.16664 92 2.7472
      vertex -10.8334 92 2.7472
      vertex -10.7071 92 2.82288
    endloop
  endfacet
  facet normal 0 1 0
    outer loop
      vertex -9.04841 92 2.65952
      vertex -10.8334 92 2.7472
      vertex -9.16664 92 2.7472
    endloop
  endfacet
  facet normal 0 1 0
    outer loop
      vertex -9.04841 92 2.65952
      vertex -10.9516 92 2.65952
      vertex -10.8334 92 2.7472
    endloop
  endfacet
  facet normal 0 1 0
    outer loop
      vertex -8.93934 92 2.56066
      vertex -10.9516 92 2.65952
      vertex -9.04841 92 2.65952
    endloop
  endfacet
  facet normal 0 1 0
    outer loop
      vertex -8.93934 92 2.56066
      vertex -11.0607 92 2.56066
      vertex -10.9516 92 2.65952
    endloop
  endfacet
  facet normal 0 1 0
    outer loop
      vertex -8.84048 92 2.45159
      vertex -11.0607 92 2.56066
      vertex -8.93934 92 2.56066
    endloop
  endfacet
  facet normal 0 1 0
    outer loop
      vertex -8.84048 92 2.45159
      vertex -11.1595 92 2.45159
      vertex -11.0607 92 2.56066
    endloop
  endfacet
  facet normal 0 1 0
    outer loop
      vertex -8.7528 92 2.33335
      vertex -11.1595 92 2.45159
      vertex -8.84048 92 2.45159
    endloop
  endfacet
  facet normal 0 1 0
    outer loop
      vertex -8.7528 92 2.33335
      vertex -11.2472 92 2.33335
      vertex -11.1595 92 2.45159
    endloop
  endfacet
  facet normal 0 1 0
    outer loop
      vertex -8.67712 92 2.20709
      vertex -11.2472 92 2.33335
      vertex -8.7528 92 2.33335
    endloop
  endfacet
  facet normal 0 1 0
    outer loop
      vertex -8.67712 92 2.20709
      vertex -11.3229 92 2.20709
      vertex -11.2472 92 2.33335
    endloop
  endfacet
  facet normal 0 1 0
    outer loop
      vertex -8.58769 92 2
      vertex -8.67712 92 2.20709
      vertex -8.61418 92 2.07402
    endloop
  endfacet
  facet normal 0 1 0
    outer loop
      vertex -8.67712 92 2.20709
      vertex -8.58769 92 2
      vertex -11.3229 92 2.20709
    endloop
  endfacet
  facet normal 0 1 0
    outer loop
      vertex -11.3229 92 2.20709
      vertex -8.58769 92 2
      vertex -11.3858 92 2.07402
    endloop
  endfacet
  facet normal 0 1 0
    outer loop
      vertex -8.58769 92 2
      vertex -11.4354 92 1.93543
      vertex -11.3858 92 2.07402
    endloop
  endfacet
  facet normal 0 1 0
    outer loop
      vertex 8.58769 92 2
      vertex 10 92 2.04281e-14
      vertex -8.58769 92 2
    endloop
  endfacet
  facet normal 0 1 0
    outer loop
      vertex 10 92 2.04281e-14
      vertex 11.4354 92 1.93543
      vertex 11.4712 92 1.79263
    endloop
  endfacet
  facet normal 0 1 0
    outer loop
      vertex -10 92 2.04281e-14
      vertex -8.58769 92 2
      vertex 10 92 2.04281e-14
    endloop
  endfacet
  facet normal 0 1 0
    outer loop
      vertex 10 92 2.04281e-14
      vertex 11.4712 92 1.79263
      vertex 11.4928 92 1.64703
    endloop
  endfacet
  facet normal 0 1 0
    outer loop
      vertex -8.58769 92 2
      vertex -10 92 2.04281e-14
      vertex -11.4354 92 1.93543
    endloop
  endfacet
  facet normal 0 1 0
    outer loop
      vertex 10 92 2.04281e-14
      vertex 11.4928 92 1.64703
      vertex 11.5 92 1.5
    endloop
  endfacet
  facet normal 0 1 0
    outer loop
      vertex -11.4354 92 1.93543
      vertex -10 92 2.04281e-14
      vertex -11.4712 92 1.79263
    endloop
  endfacet
  facet normal 0 1 0
    outer loop
      vertex 10 92 2.04281e-14
      vertex 11.5 92 1.5
      vertex 11.4928 92 1.35297
    endloop
  endfacet
  facet normal 0 1 0
    outer loop
      vertex -11.4712 92 1.79263
      vertex -10 92 2.04281e-14
      vertex -11.4928 92 1.64703
    endloop
  endfacet
  facet normal 0 1 0
    outer loop
      vertex 10 92 2.04281e-14
      vertex 11.4928 92 1.35297
      vertex 11.4712 92 1.20736
    endloop
  endfacet
  facet normal 0 1 0
    outer loop
      vertex -11.4928 92 1.64703
      vertex -10 92 2.04281e-14
      vertex -11.5 92 1.5
    endloop
  endfacet
  facet normal 0 1 0
    outer loop
      vertex 10 92 2.04281e-14
      vertex 11.4712 92 1.20736
      vertex 11.4354 92 1.06457
    endloop
  endfacet
  facet normal 0 1 0
    outer loop
      vertex -11.5 92 1.5
      vertex -10 92 2.04281e-14
      vertex -11.4928 92 1.35297
    endloop
  endfacet
  facet normal 0 1 0
    outer loop
      vertex 10 92 2.04281e-14
      vertex 11.4354 92 1.06457
      vertex 11.3858 92 0.925976
    endloop
  endfacet
  facet normal 0 1 0
    outer loop
      vertex -11.4928 92 1.35297
      vertex -10 92 2.04281e-14
      vertex -11.4712 92 1.20736
    endloop
  endfacet
  facet normal 0 1 0
    outer loop
      vertex 10 92 2.04281e-14
      vertex 11.3858 92 0.925976
      vertex 11.3229 92 0.792906
    endloop
  endfacet
  facet normal 0 1 0
    outer loop
      vertex -11.4712 92 1.20736
      vertex -10 92 2.04281e-14
      vertex -11.4354 92 1.06457
    endloop
  endfacet
  facet normal 0 1 0
    outer loop
      vertex 10 92 2.04281e-14
      vertex 11.3229 92 0.792906
      vertex 11.2472 92 0.666645
    endloop
  endfacet
  facet normal 0 1 0
    outer loop
      vertex -11.4354 92 1.06457
      vertex -10 92 2.04281e-14
      vertex -11.3858 92 0.925976
    endloop
  endfacet
  facet normal 0 1 0
    outer loop
      vertex 10 92 2.04281e-14
      vertex 11.2472 92 0.666645
      vertex 11.1595 92 0.54841
    endloop
  endfacet
  facet normal 0 1 0
    outer loop
      vertex -11.3858 92 0.925976
      vertex -10 92 2.04281e-14
      vertex -11.3229 92 0.792906
    endloop
  endfacet
  facet normal 0 1 0
    outer loop
      vertex 10 92 2.04281e-14
      vertex 11.1595 92 0.54841
      vertex 11.0607 92 0.439341
    endloop
  endfacet
  facet normal 0 1 0
    outer loop
      vertex -11.3229 92 0.792906
      vertex -10 92 2.04281e-14
      vertex -11.2472 92 0.666645
    endloop
  endfacet
  facet normal 0 1 0
    outer loop
      vertex 10 92 2.04281e-14
      vertex 11.0607 92 0.439341
      vertex 10.9516 92 0.340485
    endloop
  endfacet
  facet normal 0 1 0
    outer loop
      vertex -11.2472 92 0.666645
      vertex -10 92 2.04281e-14
      vertex -11.1595 92 0.54841
    endloop
  endfacet
  facet normal 0 1 0
    outer loop
      vertex 10 92 2.04281e-14
      vertex 10.9516 92 0.340485
      vertex 10.8334 92 0.252796
    endloop
  endfacet
  facet normal 0 1 0
    outer loop
      vertex -11.1595 92 0.54841
      vertex -10 92 2.04281e-14
      vertex -11.0607 92 0.439341
    endloop
  endfacet
  facet normal 0 1 0
    outer loop
      vertex 10 92 2.04281e-14
      vertex 10.8334 92 0.252796
      vertex 10.7071 92 0.177118
    endloop
  endfacet
  facet normal 0 1 0
    outer loop
      vertex -11.0607 92 0.439341
      vertex -10 92 2.04281e-14
      vertex -10.9516 92 0.340485
    endloop
  endfacet
  facet normal 0 1 0
    outer loop
      vertex 10 92 2.04281e-14
      vertex 10.7071 92 0.177118
      vertex 10.574 92 0.114182
    endloop
  endfacet
  facet normal 0 1 0
    outer loop
      vertex -10.9516 92 0.340485
      vertex -10 92 2.04281e-14
      vertex -10.8334 92 0.252796
    endloop
  endfacet
  facet normal 0 1 0
    outer loop
      vertex 10 92 2.04281e-14
      vertex 10.574 92 0.114182
      vertex 10.4354 92 0.0645895
    endloop
  endfacet
  facet normal 0 1 0
    outer loop
      vertex -10.8334 92 0.252796
      vertex -10 92 2.04281e-14
      vertex -10.7071 92 0.177118
    endloop
  endfacet
  facet normal 0 1 0
    outer loop
      vertex 10 92 2.04281e-14
      vertex 10.4354 92 0.0645895
      vertex 10.2926 92 0.0288229
    endloop
  endfacet
  facet normal 0 1 0
    outer loop
      vertex -10.7071 92 0.177118
      vertex -10 92 2.04281e-14
      vertex -10.574 92 0.114182
    endloop
  endfacet
  facet normal 0 1 0
    outer loop
      vertex 10 92 2.04281e-14
      vertex 10.2926 92 0.0288229
      vertex 10.147 92 0.00722313
    endloop
  endfacet
  facet normal 0 1 0
    outer loop
      vertex -10.574 92 0.114182
      vertex -10 92 2.04281e-14
      vertex -10.4354 92 0.0645895
    endloop
  endfacet
  facet normal 0 1 0
    outer loop
      vertex -10.4354 92 0.0645895
      vertex -10 92 2.04281e-14
      vertex -10.2926 92 0.0288229
    endloop
  endfacet
  facet normal 0 1 0
    outer loop
      vertex -10.2926 92 0.0288229
      vertex -10 92 2.04281e-14
      vertex -10.147 92 0.00722313
    endloop
  endfacet
  facet normal 0 -1 -2.22045e-16
    outer loop
      vertex -10.147 -4.42485e-16 2.99278
      vertex -9.85297 -4.42485e-16 2.99278
      vertex -10 -4.44089e-16 3
    endloop
  endfacet
  facet normal 0 -1 -2.22045e-16
    outer loop
      vertex -10.2926 -4.37689e-16 2.97118
      vertex -9.85297 -4.42485e-16 2.99278
      vertex -10.147 -4.42485e-16 2.99278
    endloop
  endfacet
  facet normal 0 -1 -2.22045e-16
    outer loop
      vertex -10.2926 -4.37689e-16 2.97118
      vertex -9.70736 -4.37689e-16 2.97118
      vertex -9.85297 -4.42485e-16 2.99278
    endloop
  endfacet
  facet normal 0 -1 -2.22045e-16
    outer loop
      vertex -10.4354 -4.29747e-16 2.93541
      vertex -9.70736 -4.37689e-16 2.97118
      vertex -10.2926 -4.37689e-16 2.97118
    endloop
  endfacet
  facet normal 0 -1 -2.22045e-16
    outer loop
      vertex -10.4354 -4.29747e-16 2.93541
      vertex -9.56457 -4.29747e-16 2.93541
      vertex -9.70736 -4.37689e-16 2.97118
    endloop
  endfacet
  facet normal 0 -1 -2.22045e-16
    outer loop
      vertex -10.574 -4.18736e-16 2.88582
      vertex -9.56457 -4.29747e-16 2.93541
      vertex -10.4354 -4.29747e-16 2.93541
    endloop
  endfacet
  facet normal 0 -1 -2.22045e-16
    outer loop
      vertex -10.574 -4.18736e-16 2.88582
      vertex -9.42597 -4.18736e-16 2.88582
      vertex -9.56457 -4.29747e-16 2.93541
    endloop
  endfacet
  facet normal 0 -1 -2.22045e-16
    outer loop
      vertex -10.7071 -4.04761e-16 2.82288
      vertex -9.42597 -4.18736e-16 2.88582
      vertex -10.574 -4.18736e-16 2.88582
    endloop
  endfacet
  facet normal 0 -1 -2.22045e-16
    outer loop
      vertex -10.7071 -4.04761e-16 2.82288
      vertex -9.2929 -4.04761e-16 2.82288
      vertex -9.42597 -4.18736e-16 2.88582
    endloop
  endfacet
  facet normal 0 -1 -2.22045e-16
    outer loop
      vertex -10.8334 -3.87957e-16 2.7472
      vertex -9.2929 -4.04761e-16 2.82288
      vertex -10.7071 -4.04761e-16 2.82288
    endloop
  endfacet
  facet normal 0 -1 -2.22045e-16
    outer loop
      vertex -10.8334 -3.87957e-16 2.7472
      vertex -9.16664 -3.87957e-16 2.7472
      vertex -9.2929 -4.04761e-16 2.82288
    endloop
  endfacet
  facet normal 0 -1 -2.22045e-16
    outer loop
      vertex -10.9516 -3.68486e-16 2.65952
      vertex -9.16664 -3.87957e-16 2.7472
      vertex -10.8334 -3.87957e-16 2.7472
    endloop
  endfacet
  facet normal 0 -1 -2.22045e-16
    outer loop
      vertex -10.9516 -3.68486e-16 2.65952
      vertex -9.04841 -3.68486e-16 2.65952
      vertex -9.16664 -3.87957e-16 2.7472
    endloop
  endfacet
  facet normal 0 -1 -2.22045e-16
    outer loop
      vertex -11.0607 -3.46536e-16 2.56066
      vertex -9.04841 -3.68486e-16 2.65952
      vertex -10.9516 -3.68486e-16 2.65952
    endloop
  endfacet
  facet normal 0 -1 -2.22045e-16
    outer loop
      vertex -11.0607 -3.46536e-16 2.56066
      vertex -8.93934 -3.46536e-16 2.56066
      vertex -9.04841 -3.68486e-16 2.65952
    endloop
  endfacet
  facet normal 0 -1 -2.22045e-16
    outer loop
      vertex -11.1595 -3.22318e-16 2.45159
      vertex -8.93934 -3.46536e-16 2.56066
      vertex -11.0607 -3.46536e-16 2.56066
    endloop
  endfacet
  facet normal 0 -1 -2.22045e-16
    outer loop
      vertex -11.1595 -3.22318e-16 2.45159
      vertex -8.84048 -3.22318e-16 2.45159
      vertex -8.93934 -3.46536e-16 2.56066
    endloop
  endfacet
  facet normal 0 -1 -2.22045e-16
    outer loop
      vertex -11.2472 -2.96064e-16 2.33335
      vertex -8.84048 -3.22318e-16 2.45159
      vertex -11.1595 -3.22318e-16 2.45159
    endloop
  endfacet
  facet normal 0 -1 -2.22045e-16
    outer loop
      vertex -11.2472 -2.96064e-16 2.33335
      vertex -8.7528 -2.96064e-16 2.33335
      vertex -8.84048 -3.22318e-16 2.45159
    endloop
  endfacet
  facet normal 0 -1 -2.22045e-16
    outer loop
      vertex -11.3229 -2.68029e-16 2.20709
      vertex -8.7528 -2.96064e-16 2.33335
      vertex -11.2472 -2.96064e-16 2.33335
    endloop
  endfacet
  facet normal 0 -1 -2.22045e-16
    outer loop
      vertex -11.3229 -2.68029e-16 2.20709
      vertex -8.67712 -2.68029e-16 2.20709
      vertex -8.7528 -2.96064e-16 2.33335
    endloop
  endfacet
  facet normal 0 -1 -2.22045e-16
    outer loop
      vertex -11.3858 -2.38481e-16 2.07402
      vertex -8.67712 -2.68029e-16 2.20709
      vertex -11.3229 -2.68029e-16 2.20709
    endloop
  endfacet
  facet normal 0 -1 -2.22045e-16
    outer loop
      vertex -8.58769 -2.22045e-16 2
      vertex -8.67712 -2.68029e-16 2.20709
      vertex -11.3858 -2.38481e-16 2.07402
    endloop
  endfacet
  facet normal 0 -1 -2.22045e-16
    outer loop
      vertex -8.67712 -2.68029e-16 2.20709
      vertex -8.58769 -2.22045e-16 2
      vertex -8.61418 -2.38481e-16 2.07402
    endloop
  endfacet
  facet normal 0 -1 -2.22045e-16
    outer loop
      vertex -10 2.22045e-16 0
      vertex -8.58769 -2.22045e-16 2
      vertex -11.4354 -2.07706e-16 1.93543
    endloop
  endfacet
  facet normal 0 -1 -2.22045e-16
    outer loop
      vertex -11.4354 -2.07706e-16 1.93543
      vertex -8.58769 -2.22045e-16 2
      vertex -11.3858 -2.38481e-16 2.07402
    endloop
  endfacet
  facet normal 0 -1 -2.22045e-16
    outer loop
      vertex 9.85297 -4.42485e-16 2.99278
      vertex 10.147 -4.42485e-16 2.99278
      vertex 10 -4.44089e-16 3
    endloop
  endfacet
  facet normal 0 -1 -2.22045e-16
    outer loop
      vertex 9.70736 -4.37689e-16 2.97118
      vertex 10.147 -4.42485e-16 2.99278
      vertex 9.85297 -4.42485e-16 2.99278
    endloop
  endfacet
  facet normal 0 -1 -2.22045e-16
    outer loop
      vertex 9.70736 -4.37689e-16 2.97118
      vertex 10.2926 -4.37689e-16 2.97118
      vertex 10.147 -4.42485e-16 2.99278
    endloop
  endfacet
  facet normal 0 -1 -2.22045e-16
    outer loop
      vertex 9.56457 -4.29747e-16 2.93541
      vertex 10.2926 -4.37689e-16 2.97118
      vertex 9.70736 -4.37689e-16 2.97118
    endloop
  endfacet
  facet normal 0 -1 -2.22045e-16
    outer loop
      vertex 9.56457 -4.29747e-16 2.93541
      vertex 10.4354 -4.29747e-16 2.93541
      vertex 10.2926 -4.37689e-16 2.97118
    endloop
  endfacet
  facet normal 0 -1 -2.22045e-16
    outer loop
      vertex 9.42597 -4.18736e-16 2.88582
      vertex 10.4354 -4.29747e-16 2.93541
      vertex 9.56457 -4.29747e-16 2.93541
    endloop
  endfacet
  facet normal 0 -1 -2.22045e-16
    outer loop
      vertex 9.42597 -4.18736e-16 2.88582
      vertex 10.574 -4.18736e-16 2.88582
      vertex 10.4354 -4.29747e-16 2.93541
    endloop
  endfacet
  facet normal 0 -1 -2.22045e-16
    outer loop
      vertex 9.2929 -4.04761e-16 2.82288
      vertex 10.574 -4.18736e-16 2.88582
      vertex 9.42597 -4.18736e-16 2.88582
    endloop
  endfacet
  facet normal 0 -1 -2.22045e-16
    outer loop
      vertex 9.2929 -4.04761e-16 2.82288
      vertex 10.7071 -4.04761e-16 2.82288
      vertex 10.574 -4.18736e-16 2.88582
    endloop
  endfacet
  facet normal 0 -1 -2.22045e-16
    outer loop
      vertex 9.16664 -3.87957e-16 2.7472
      vertex 10.7071 -4.04761e-16 2.82288
      vertex 9.2929 -4.04761e-16 2.82288
    endloop
  endfacet
  facet normal 0 -1 -2.22045e-16
    outer loop
      vertex 9.16664 -3.87957e-16 2.7472
      vertex 10.8334 -3.87957e-16 2.7472
      vertex 10.7071 -4.04761e-16 2.82288
    endloop
  endfacet
  facet normal 0 -1 -2.22045e-16
    outer loop
      vertex 9.04841 -3.68486e-16 2.65952
      vertex 10.8334 -3.87957e-16 2.7472
      vertex 9.16664 -3.87957e-16 2.7472
    endloop
  endfacet
  facet normal 0 -1 -2.22045e-16
    outer loop
      vertex 9.04841 -3.68486e-16 2.65952
      vertex 10.9516 -3.68486e-16 2.65952
      vertex 10.8334 -3.87957e-16 2.7472
    endloop
  endfacet
  facet normal 0 -1 -2.22045e-16
    outer loop
      vertex 8.93934 -3.46536e-16 2.56066
      vertex 10.9516 -3.68486e-16 2.65952
      vertex 9.04841 -3.68486e-16 2.65952
    endloop
  endfacet
  facet normal 0 -1 -2.22045e-16
    outer loop
      vertex 8.93934 -3.46536e-16 2.56066
      vertex 11.0607 -3.46536e-16 2.56066
      vertex 10.9516 -3.68486e-16 2.65952
    endloop
  endfacet
  facet normal 0 -1 -2.22045e-16
    outer loop
      vertex 8.84048 -3.22318e-16 2.45159
      vertex 11.0607 -3.46536e-16 2.56066
      vertex 8.93934 -3.46536e-16 2.56066
    endloop
  endfacet
  facet normal 0 -1 -2.22045e-16
    outer loop
      vertex 8.84048 -3.22318e-16 2.45159
      vertex 11.1595 -3.22318e-16 2.45159
      vertex 11.0607 -3.46536e-16 2.56066
    endloop
  endfacet
  facet normal 0 -1 -2.22045e-16
    outer loop
      vertex 8.7528 -2.96064e-16 2.33335
      vertex 11.1595 -3.22318e-16 2.45159
      vertex 8.84048 -3.22318e-16 2.45159
    endloop
  endfacet
  facet normal 0 -1 -2.22045e-16
    outer loop
      vertex 8.7528 -2.96064e-16 2.33335
      vertex 11.2472 -2.96064e-16 2.33335
      vertex 11.1595 -3.22318e-16 2.45159
    endloop
  endfacet
  facet normal 0 -1 -2.22045e-16
    outer loop
      vertex 8.67712 -2.68029e-16 2.20709
      vertex 11.2472 -2.96064e-16 2.33335
      vertex 8.7528 -2.96064e-16 2.33335
    endloop
  endfacet
  facet normal 0 -1 -2.22045e-16
    outer loop
      vertex 8.67712 -2.68029e-16 2.20709
      vertex 11.3229 -2.68029e-16 2.20709
      vertex 11.2472 -2.96064e-16 2.33335
    endloop
  endfacet
  facet normal 0 -1 -2.22045e-16
    outer loop
      vertex 8.58769 -2.22045e-16 2
      vertex 8.67712 -2.68029e-16 2.20709
      vertex 8.61418 -2.38481e-16 2.07402
    endloop
  endfacet
  facet normal 0 -1 -2.22045e-16
    outer loop
      vertex 8.67712 -2.68029e-16 2.20709
      vertex 8.58769 -2.22045e-16 2
      vertex 11.3229 -2.68029e-16 2.20709
    endloop
  endfacet
  facet normal 0 -1 -2.22045e-16
    outer loop
      vertex 11.3229 -2.68029e-16 2.20709
      vertex 8.58769 -2.22045e-16 2
      vertex 11.3858 -2.38481e-16 2.07402
    endloop
  endfacet
  facet normal 0 -1 -2.22045e-16
    outer loop
      vertex 8.58769 -2.22045e-16 2
      vertex 11.4354 -2.07706e-16 1.93543
      vertex 11.3858 -2.38481e-16 2.07402
    endloop
  endfacet
  facet normal 0 -1 -2.22045e-16
    outer loop
      vertex -8.58769 -2.22045e-16 2
      vertex -10 2.22045e-16 0
      vertex 8.58769 -2.22045e-16 2
    endloop
  endfacet
  facet normal 0 -1 -2.22045e-16
    outer loop
      vertex -10 2.22045e-16 0
      vertex -11.4354 -2.07706e-16 1.93543
      vertex -11.4712 -1.76e-16 1.79263
    endloop
  endfacet
  facet normal -0 -1 -2.22045e-16
    outer loop
      vertex 10 2.22045e-16 0
      vertex 8.58769 -2.22045e-16 2
      vertex -10 2.22045e-16 0
    endloop
  endfacet
  facet normal 0 -1 -2.22045e-16
    outer loop
      vertex -10 2.22045e-16 0
      vertex -11.4712 -1.76e-16 1.79263
      vertex -11.4928 -1.43668e-16 1.64703
    endloop
  endfacet
  facet normal 0 -1 -2.22045e-16
    outer loop
      vertex 8.58769 -2.22045e-16 2
      vertex 10 2.22045e-16 0
      vertex 11.4354 -2.07706e-16 1.93543
    endloop
  endfacet
  facet normal 0 -1 -2.22045e-16
    outer loop
      vertex 11.4712 -1.76e-16 1.79263
      vertex 10 2.22045e-16 0
      vertex 11.4928 -1.43668e-16 1.64703
    endloop
  endfacet
  facet normal 0 -1 -2.22045e-16
    outer loop
      vertex -10 2.22045e-16 0
      vertex -11.4928 -1.43668e-16 1.64703
      vertex -11.5 -1.11022e-16 1.5
    endloop
  endfacet
  facet normal 0 -1 -2.22045e-16
    outer loop
      vertex -10 2.22045e-16 0
      vertex -11.5 -1.11022e-16 1.5
      vertex -11.4928 -7.8376e-17 1.35297
    endloop
  endfacet
  facet normal 0 -1 -2.22045e-16
    outer loop
      vertex 11.4354 -2.07706e-16 1.93543
      vertex 10 2.22045e-16 0
      vertex 11.4712 -1.76e-16 1.79263
    endloop
  endfacet
  facet normal 0 -1 -2.22045e-16
    outer loop
      vertex -10 2.22045e-16 0
      vertex -11.4928 -7.8376e-17 1.35297
      vertex -11.4712 -4.60441e-17 1.20736
    endloop
  endfacet
  facet normal 0 -1 -2.22045e-16
    outer loop
      vertex 11.4928 -1.43668e-16 1.64703
      vertex 10 2.22045e-16 0
      vertex 11.5 -1.11022e-16 1.5
    endloop
  endfacet
  facet normal 0 -1 -2.22045e-16
    outer loop
      vertex -10 2.22045e-16 0
      vertex -11.4712 -4.60441e-17 1.20736
      vertex -11.4354 -1.43379e-17 1.06457
    endloop
  endfacet
  facet normal 0 -1 -2.22045e-16
    outer loop
      vertex 11.5 -1.11022e-16 1.5
      vertex 10 2.22045e-16 0
      vertex 11.4928 -7.8376e-17 1.35297
    endloop
  endfacet
  facet normal 0 -1 -2.22045e-16
    outer loop
      vertex -10 2.22045e-16 0
      vertex -11.4354 -1.43379e-17 1.06457
      vertex -11.3858 1.64367e-17 0.925976
    endloop
  endfacet
  facet normal 0 -1 -2.22045e-16
    outer loop
      vertex 11.4928 -7.8376e-17 1.35297
      vertex 10 2.22045e-16 0
      vertex 11.4712 -4.60441e-17 1.20736
    endloop
  endfacet
  facet normal 0 -1 -2.22045e-16
    outer loop
      vertex -10 2.22045e-16 0
      vertex -11.3858 1.64367e-17 0.925976
      vertex -11.3229 4.59841e-17 0.792906
    endloop
  endfacet
  facet normal 0 -1 -2.22045e-16
    outer loop
      vertex 11.4712 -4.60441e-17 1.20736
      vertex 10 2.22045e-16 0
      vertex 11.4354 -1.43379e-17 1.06457
    endloop
  endfacet
  facet normal 0 -1 -2.22045e-16
    outer loop
      vertex -10 2.22045e-16 0
      vertex -11.3229 4.59841e-17 0.792906
      vertex -11.2472 7.40197e-17 0.666645
    endloop
  endfacet
  facet normal 0 -1 -2.22045e-16
    outer loop
      vertex 11.4354 -1.43379e-17 1.06457
      vertex 10 2.22045e-16 0
      vertex 11.3858 1.64367e-17 0.925976
    endloop
  endfacet
  facet normal 0 -1 -2.22045e-16
    outer loop
      vertex -10 2.22045e-16 0
      vertex -11.2472 7.40197e-17 0.666645
      vertex -11.1595 1.00273e-16 0.54841
    endloop
  endfacet
  facet normal 0 -1 -2.22045e-16
    outer loop
      vertex 11.3858 1.64367e-17 0.925976
      vertex 10 2.22045e-16 0
      vertex 11.3229 4.59841e-17 0.792906
    endloop
  endfacet
  facet normal 0 -1 -2.22045e-16
    outer loop
      vertex -10 2.22045e-16 0
      vertex -11.1595 1.00273e-16 0.54841
      vertex -11.0607 1.24491e-16 0.439341
    endloop
  endfacet
  facet normal 0 -1 -2.22045e-16
    outer loop
      vertex 11.3229 4.59841e-17 0.792906
      vertex 10 2.22045e-16 0
      vertex 11.2472 7.40197e-17 0.666645
    endloop
  endfacet
  facet normal 0 -1 -2.22045e-16
    outer loop
      vertex -10 2.22045e-16 0
      vertex -11.0607 1.24491e-16 0.439341
      vertex -10.9516 1.46442e-16 0.340485
    endloop
  endfacet
  facet normal 0 -1 -2.22045e-16
    outer loop
      vertex 11.2472 7.40197e-17 0.666645
      vertex 10 2.22045e-16 0
      vertex 11.1595 1.00273e-16 0.54841
    endloop
  endfacet
  facet normal 0 -1 -2.22045e-16
    outer loop
      vertex -10 2.22045e-16 0
      vertex -10.9516 1.46442e-16 0.340485
      vertex -10.8334 1.65913e-16 0.252796
    endloop
  endfacet
  facet normal 0 -1 -2.22045e-16
    outer loop
      vertex 11.1595 1.00273e-16 0.54841
      vertex 10 2.22045e-16 0
      vertex 11.0607 1.24491e-16 0.439341
    endloop
  endfacet
  facet normal 0 -1 -2.22045e-16
    outer loop
      vertex -10 2.22045e-16 0
      vertex -10.8334 1.65913e-16 0.252796
      vertex -10.7071 1.82716e-16 0.177118
    endloop
  endfacet
  facet normal 0 -1 -2.22045e-16
    outer loop
      vertex 11.0607 1.24491e-16 0.439341
      vertex 10 2.22045e-16 0
      vertex 10.9516 1.46442e-16 0.340485
    endloop
  endfacet
  facet normal 0 -1 -2.22045e-16
    outer loop
      vertex -10 2.22045e-16 0
      vertex -10.7071 1.82716e-16 0.177118
      vertex -10.574 1.96691e-16 0.114182
    endloop
  endfacet
  facet normal 0 -1 -2.22045e-16
    outer loop
      vertex 10.9516 1.46442e-16 0.340485
      vertex 10 2.22045e-16 0
      vertex 10.8334 1.65913e-16 0.252796
    endloop
  endfacet
  facet normal 0 -1 -2.22045e-16
    outer loop
      vertex -10 2.22045e-16 0
      vertex -10.574 1.96691e-16 0.114182
      vertex -10.4354 2.07703e-16 0.0645895
    endloop
  endfacet
  facet normal 0 -1 -2.22045e-16
    outer loop
      vertex 10.8334 1.65913e-16 0.252796
      vertex 10 2.22045e-16 0
      vertex 10.7071 1.82716e-16 0.177118
    endloop
  endfacet
  facet normal 0 -1 -2.22045e-16
    outer loop
      vertex -10 2.22045e-16 0
      vertex -10.4354 2.07703e-16 0.0645895
      vertex -10.2926 2.15645e-16 0.0288229
    endloop
  endfacet
  facet normal 0 -1 -2.22045e-16
    outer loop
      vertex 10.7071 1.82716e-16 0.177118
      vertex 10 2.22045e-16 0
      vertex 10.574 1.96691e-16 0.114182
    endloop
  endfacet
  facet normal 0 -1 -2.22045e-16
    outer loop
      vertex -10 2.22045e-16 0
      vertex -10.2926 2.15645e-16 0.0288229
      vertex -10.147 2.20441e-16 0.00722313
    endloop
  endfacet
  facet normal 0 -1 -2.22045e-16
    outer loop
      vertex 10.574 1.96691e-16 0.114182
      vertex 10 2.22045e-16 0
      vertex 10.4354 2.07703e-16 0.0645895
    endloop
  endfacet
  facet normal 0 -1 -2.22045e-16
    outer loop
      vertex 10.4354 2.07703e-16 0.0645895
      vertex 10 2.22045e-16 0
      vertex 10.2926 2.15645e-16 0.0288229
    endloop
  endfacet
  facet normal 0 -1 -2.22045e-16
    outer loop
      vertex 10.2926 2.15645e-16 0.0288229
      vertex 10 2.22045e-16 0
      vertex 10.147 2.20441e-16 0.00722313
    endloop
  endfacet
  facet normal -0 0 1
    outer loop
      vertex -8.58769 92 2
      vertex 8.58769 -2.22045e-16 2
      vertex 8.58769 92 2
    endloop
  endfacet
  facet normal 0 0 1
    outer loop
      vertex 8.58769 -2.22045e-16 2
      vertex -8.58769 92 2
      vertex -8.58769 -2.22045e-16 2
    endloop
  endfacet
  facet normal 0 2.22045e-16 -1
    outer loop
      vertex -10 2.22045e-16 0
      vertex 10 92 2.04281e-14
      vertex 10 2.22045e-16 0
    endloop
  endfacet
  facet normal 0 2.22045e-16 -1
    outer loop
      vertex 10 92 2.04281e-14
      vertex -10 2.22045e-16 0
      vertex -10 92 2.04281e-14
    endloop
  endfacet
  facet normal -0.336896 0 0.941542
    outer loop
      vertex -10.574 92 2.88582
      vertex -10.4354 -4.29747e-16 2.93541
      vertex -10.4354 92 2.93541
    endloop
  endfacet
  facet normal -0.336896 0 0.941542
    outer loop
      vertex -10.4354 -4.29747e-16 2.93541
      vertex -10.574 92 2.88582
      vertex -10.574 -4.18736e-16 2.88582
    endloop
  endfacet
  facet normal -0.336896 0 -0.941542
    outer loop
      vertex -10.574 1.96691e-16 0.114182
      vertex -10.4354 92 0.0645895
      vertex -10.4354 2.07703e-16 0.0645895
    endloop
  endfacet
  facet normal -0.336896 0 -0.941542
    outer loop
      vertex -10.4354 92 0.0645895
      vertex -10.574 1.96691e-16 0.114182
      vertex -10.574 92 0.114182
    endloop
  endfacet
  facet normal -0.903991 0 -0.427552
    outer loop
      vertex -11.3229 4.59841e-17 0.792906
      vertex -11.3858 92 0.925976
      vertex -11.3229 92 0.792906
    endloop
  endfacet
  facet normal -0.903991 -0 -0.427552
    outer loop
      vertex -11.3858 92 0.925976
      vertex -11.3229 4.59841e-17 0.792906
      vertex -11.3858 1.64367e-17 0.925976
    endloop
  endfacet
  facet normal -0.903991 0 0.427552
    outer loop
      vertex -11.3858 -2.38481e-16 2.07402
      vertex -11.3229 92 2.20709
      vertex -11.3858 92 2.07402
    endloop
  endfacet
  facet normal -0.903991 0 0.427552
    outer loop
      vertex -11.3229 92 2.20709
      vertex -11.3858 -2.38481e-16 2.07402
      vertex -11.3229 -2.68029e-16 2.20709
    endloop
  endfacet
  facet normal -0.595698 0 -0.803209
    outer loop
      vertex -10.9516 1.46442e-16 0.340485
      vertex -10.8334 92 0.252796
      vertex -10.8334 1.65913e-16 0.252796
    endloop
  endfacet
  facet normal -0.595698 0 -0.803209
    outer loop
      vertex -10.8334 92 0.252796
      vertex -10.9516 1.46442e-16 0.340485
      vertex -10.9516 92 0.340485
    endloop
  endfacet
  facet normal 0.941544 0 0.336891
    outer loop
      vertex -8.61418 92 2.07402
      vertex -8.58769 -2.22045e-16 2
      vertex -8.58769 92 2
    endloop
  endfacet
  facet normal 0.941544 0 0.336891
    outer loop
      vertex -8.58769 -2.22045e-16 2
      vertex -8.61418 92 2.07402
      vertex -8.61418 -2.38481e-16 2.07402
    endloop
  endfacet
  facet normal 0.336896 0 0.941542
    outer loop
      vertex -9.56457 92 2.93541
      vertex -9.42597 -4.18736e-16 2.88582
      vertex -9.42597 92 2.88582
    endloop
  endfacet
  facet normal 0.336896 0 0.941542
    outer loop
      vertex -9.42597 -4.18736e-16 2.88582
      vertex -9.56457 92 2.93541
      vertex -9.56457 -4.29747e-16 2.93541
    endloop
  endfacet
  facet normal 0.740948 0 0.671562
    outer loop
      vertex -8.93934 92 2.56066
      vertex -8.84048 -3.22318e-16 2.45159
      vertex -8.84048 92 2.45159
    endloop
  endfacet
  facet normal 0.740948 0 0.671562
    outer loop
      vertex -8.84048 -3.22318e-16 2.45159
      vertex -8.93934 92 2.56066
      vertex -8.93934 -3.46536e-16 2.56066
    endloop
  endfacet
  facet normal -0.998795 0 -0.0490694
    outer loop
      vertex -11.4928 -7.8376e-17 1.35297
      vertex -11.5 92 1.5
      vertex -11.4928 92 1.35297
    endloop
  endfacet
  facet normal -0.998795 -0 -0.0490694
    outer loop
      vertex -11.5 92 1.5
      vertex -11.4928 -7.8376e-17 1.35297
      vertex -11.5 -1.11022e-16 1.5
    endloop
  endfacet
  facet normal -0.941541 0 -0.336898
    outer loop
      vertex -11.3858 1.64367e-17 0.925976
      vertex -11.4354 92 1.06457
      vertex -11.3858 92 0.925976
    endloop
  endfacet
  facet normal -0.941541 -0 -0.336898
    outer loop
      vertex -11.4354 92 1.06457
      vertex -11.3858 1.64367e-17 0.925976
      vertex -11.4354 -1.43379e-17 1.06457
    endloop
  endfacet
  facet normal -0.970033 0 -0.242975
    outer loop
      vertex -11.4354 -1.43379e-17 1.06457
      vertex -11.4712 92 1.20736
      vertex -11.4354 92 1.06457
    endloop
  endfacet
  facet normal -0.970033 -0 -0.242975
    outer loop
      vertex -11.4712 92 1.20736
      vertex -11.4354 -1.43379e-17 1.06457
      vertex -11.4712 -4.60441e-17 1.20736
    endloop
  endfacet
  facet normal -0.989176 0 -0.146734
    outer loop
      vertex -11.4712 -4.60441e-17 1.20736
      vertex -11.4928 92 1.35297
      vertex -11.4712 92 1.20736
    endloop
  endfacet
  facet normal -0.989176 -0 -0.146734
    outer loop
      vertex -11.4928 92 1.35297
      vertex -11.4712 -4.60441e-17 1.20736
      vertex -11.4928 -7.8376e-17 1.35297
    endloop
  endfacet
  facet normal -0.740948 0 -0.671562
    outer loop
      vertex -11.0607 1.24491e-16 0.439341
      vertex -11.1595 92 0.54841
      vertex -11.0607 92 0.439341
    endloop
  endfacet
  facet normal -0.740948 -0 -0.671562
    outer loop
      vertex -11.1595 92 0.54841
      vertex -11.0607 1.24491e-16 0.439341
      vertex -11.1595 1.00273e-16 0.54841
    endloop
  endfacet
  facet normal -0.803209 0 -0.595698
    outer loop
      vertex -11.1595 1.00273e-16 0.54841
      vertex -11.2472 92 0.666645
      vertex -11.1595 92 0.54841
    endloop
  endfacet
  facet normal -0.803209 -0 -0.595698
    outer loop
      vertex -11.2472 92 0.666645
      vertex -11.1595 1.00273e-16 0.54841
      vertex -11.2472 7.40197e-17 0.666645
    endloop
  endfacet
  facet normal -0.0490694 2.21778e-16 -0.998795
    outer loop
      vertex -10.147 2.20441e-16 0.00722313
      vertex -10 92 2.04281e-14
      vertex -10 2.22045e-16 0
    endloop
  endfacet
  facet normal -0.0490694 0 -0.998795
    outer loop
      vertex -10 92 2.04281e-14
      vertex -10.147 2.20441e-16 0.00722313
      vertex -10.147 92 0.00722313
    endloop
  endfacet
  facet normal -0.146734 0 -0.989176
    outer loop
      vertex -10.2926 2.15645e-16 0.0288229
      vertex -10.147 92 0.00722313
      vertex -10.147 2.20441e-16 0.00722313
    endloop
  endfacet
  facet normal -0.146734 0 -0.989176
    outer loop
      vertex -10.147 92 0.00722313
      vertex -10.2926 2.15645e-16 0.0288229
      vertex -10.2926 92 0.0288229
    endloop
  endfacet
  facet normal -0.427552 0 -0.903991
    outer loop
      vertex -10.7071 1.82716e-16 0.177118
      vertex -10.574 92 0.114182
      vertex -10.574 1.96691e-16 0.114182
    endloop
  endfacet
  facet normal -0.427552 0 -0.903991
    outer loop
      vertex -10.574 92 0.114182
      vertex -10.7071 1.82716e-16 0.177118
      vertex -10.7071 92 0.177118
    endloop
  endfacet
  facet normal -0.514103 0 -0.857728
    outer loop
      vertex -10.8334 1.65913e-16 0.252796
      vertex -10.7071 92 0.177118
      vertex -10.7071 1.82716e-16 0.177118
    endloop
  endfacet
  facet normal -0.514103 0 -0.857728
    outer loop
      vertex -10.7071 92 0.177118
      vertex -10.8334 1.65913e-16 0.252796
      vertex -10.8334 92 0.252796
    endloop
  endfacet
  facet normal -0.671562 0 -0.740948
    outer loop
      vertex -11.0607 1.24491e-16 0.439341
      vertex -10.9516 92 0.340485
      vertex -10.9516 1.46442e-16 0.340485
    endloop
  endfacet
  facet normal -0.671562 0 -0.740948
    outer loop
      vertex -10.9516 92 0.340485
      vertex -11.0607 1.24491e-16 0.439341
      vertex -11.0607 92 0.439341
    endloop
  endfacet
  facet normal 0.049069 0 0.998795
    outer loop
      vertex -10 92 3
      vertex -9.85297 -4.42485e-16 2.99278
      vertex -9.85297 92 2.99278
    endloop
  endfacet
  facet normal 0.049069 0 0.998795
    outer loop
      vertex -9.85297 -4.42485e-16 2.99278
      vertex -10 92 3
      vertex -10 -4.44089e-16 3
    endloop
  endfacet
  facet normal 0.514103 0 0.857728
    outer loop
      vertex -9.2929 92 2.82288
      vertex -9.16664 -3.87957e-16 2.7472
      vertex -9.16664 92 2.7472
    endloop
  endfacet
  facet normal 0.514103 0 0.857728
    outer loop
      vertex -9.16664 -3.87957e-16 2.7472
      vertex -9.2929 92 2.82288
      vertex -9.2929 -4.04761e-16 2.82288
    endloop
  endfacet
  facet normal 0.671562 0 0.740948
    outer loop
      vertex -9.04841 92 2.65952
      vertex -8.93934 -3.46536e-16 2.56066
      vertex -8.93934 92 2.56066
    endloop
  endfacet
  facet normal 0.671562 0 0.740948
    outer loop
      vertex -8.93934 -3.46536e-16 2.56066
      vertex -9.04841 92 2.65952
      vertex -9.04841 -3.68486e-16 2.65952
    endloop
  endfacet
  facet normal 0.803209 0 0.595698
    outer loop
      vertex -8.84048 92 2.45159
      vertex -8.7528 -2.96064e-16 2.33335
      vertex -8.7528 92 2.33335
    endloop
  endfacet
  facet normal 0.803209 0 0.595698
    outer loop
      vertex -8.7528 -2.96064e-16 2.33335
      vertex -8.84048 92 2.45159
      vertex -8.84048 -3.22318e-16 2.45159
    endloop
  endfacet
  facet normal 0.903991 0 0.427552
    outer loop
      vertex -8.67712 92 2.20709
      vertex -8.61418 -2.38481e-16 2.07402
      vertex -8.61418 92 2.07402
    endloop
  endfacet
  facet normal 0.903991 0 0.427552
    outer loop
      vertex -8.61418 -2.38481e-16 2.07402
      vertex -8.67712 92 2.20709
      vertex -8.67712 -2.68029e-16 2.20709
    endloop
  endfacet
  facet normal 0.857728 0 0.514103
    outer loop
      vertex -8.7528 92 2.33335
      vertex -8.67712 -2.68029e-16 2.20709
      vertex -8.67712 92 2.20709
    endloop
  endfacet
  facet normal 0.857728 0 0.514103
    outer loop
      vertex -8.67712 -2.68029e-16 2.20709
      vertex -8.7528 92 2.33335
      vertex -8.7528 -2.96064e-16 2.33335
    endloop
  endfacet
  facet normal -0.146734 0 0.989176
    outer loop
      vertex -10.2926 92 2.97118
      vertex -10.147 -4.42485e-16 2.99278
      vertex -10.147 92 2.99278
    endloop
  endfacet
  facet normal -0.146734 0 0.989176
    outer loop
      vertex -10.147 -4.42485e-16 2.99278
      vertex -10.2926 92 2.97118
      vertex -10.2926 -4.37689e-16 2.97118
    endloop
  endfacet
  facet normal -0.0490694 0 0.998795
    outer loop
      vertex -10.147 92 2.99278
      vertex -10 -4.44089e-16 3
      vertex -10 92 3
    endloop
  endfacet
  facet normal -0.0490694 0 0.998795
    outer loop
      vertex -10 -4.44089e-16 3
      vertex -10.147 92 2.99278
      vertex -10.147 -4.42485e-16 2.99278
    endloop
  endfacet
  facet normal -0.514103 0 0.857728
    outer loop
      vertex -10.8334 92 2.7472
      vertex -10.7071 -4.04761e-16 2.82288
      vertex -10.7071 92 2.82288
    endloop
  endfacet
  facet normal -0.514103 0 0.857728
    outer loop
      vertex -10.7071 -4.04761e-16 2.82288
      vertex -10.8334 92 2.7472
      vertex -10.8334 -3.87957e-16 2.7472
    endloop
  endfacet
  facet normal -0.671562 0 0.740948
    outer loop
      vertex -11.0607 92 2.56066
      vertex -10.9516 -3.68486e-16 2.65952
      vertex -10.9516 92 2.65952
    endloop
  endfacet
  facet normal -0.671562 0 0.740948
    outer loop
      vertex -10.9516 -3.68486e-16 2.65952
      vertex -11.0607 92 2.56066
      vertex -11.0607 -3.46536e-16 2.56066
    endloop
  endfacet
  facet normal -0.427552 0 0.903991
    outer loop
      vertex -10.7071 92 2.82288
      vertex -10.574 -4.18736e-16 2.88582
      vertex -10.574 92 2.88582
    endloop
  endfacet
  facet normal -0.427552 0 0.903991
    outer loop
      vertex -10.574 -4.18736e-16 2.88582
      vertex -10.7071 92 2.82288
      vertex -10.7071 -4.04761e-16 2.82288
    endloop
  endfacet
  facet normal -0.970033 0 0.242975
    outer loop
      vertex -11.4712 -1.76e-16 1.79263
      vertex -11.4354 92 1.93543
      vertex -11.4712 92 1.79263
    endloop
  endfacet
  facet normal -0.970033 0 0.242975
    outer loop
      vertex -11.4354 92 1.93543
      vertex -11.4712 -1.76e-16 1.79263
      vertex -11.4354 -2.07706e-16 1.93543
    endloop
  endfacet
  facet normal -0.998795 0 0.049069
    outer loop
      vertex -11.5 -1.11022e-16 1.5
      vertex -11.4928 92 1.64703
      vertex -11.5 92 1.5
    endloop
  endfacet
  facet normal -0.998795 0 0.049069
    outer loop
      vertex -11.4928 92 1.64703
      vertex -11.5 -1.11022e-16 1.5
      vertex -11.4928 -1.43668e-16 1.64703
    endloop
  endfacet
  facet normal -0.803209 0 0.595698
    outer loop
      vertex -11.2472 -2.96064e-16 2.33335
      vertex -11.1595 92 2.45159
      vertex -11.2472 92 2.33335
    endloop
  endfacet
  facet normal -0.803209 0 0.595698
    outer loop
      vertex -11.1595 92 2.45159
      vertex -11.2472 -2.96064e-16 2.33335
      vertex -11.1595 -3.22318e-16 2.45159
    endloop
  endfacet
  facet normal -0.857728 0 -0.514103
    outer loop
      vertex -11.2472 7.40197e-17 0.666645
      vertex -11.3229 92 0.792906
      vertex -11.2472 92 0.666645
    endloop
  endfacet
  facet normal -0.857728 -0 -0.514103
    outer loop
      vertex -11.3229 92 0.792906
      vertex -11.2472 7.40197e-17 0.666645
      vertex -11.3229 4.59841e-17 0.792906
    endloop
  endfacet
  facet normal -0.242975 0 -0.970033
    outer loop
      vertex -10.4354 2.07703e-16 0.0645895
      vertex -10.2926 92 0.0288229
      vertex -10.2926 2.15645e-16 0.0288229
    endloop
  endfacet
  facet normal -0.242975 0 -0.970033
    outer loop
      vertex -10.2926 92 0.0288229
      vertex -10.4354 2.07703e-16 0.0645895
      vertex -10.4354 92 0.0645895
    endloop
  endfacet
  facet normal 0.146734 0 0.989176
    outer loop
      vertex -9.85297 92 2.99278
      vertex -9.70736 -4.37689e-16 2.97118
      vertex -9.70736 92 2.97118
    endloop
  endfacet
  facet normal 0.146734 0 0.989176
    outer loop
      vertex -9.70736 -4.37689e-16 2.97118
      vertex -9.85297 92 2.99278
      vertex -9.85297 -4.42485e-16 2.99278
    endloop
  endfacet
  facet normal 0.427552 0 0.903991
    outer loop
      vertex -9.42597 92 2.88582
      vertex -9.2929 -4.04761e-16 2.82288
      vertex -9.2929 92 2.82288
    endloop
  endfacet
  facet normal 0.427552 0 0.903991
    outer loop
      vertex -9.2929 -4.04761e-16 2.82288
      vertex -9.42597 92 2.88582
      vertex -9.42597 -4.18736e-16 2.88582
    endloop
  endfacet
  facet normal 0.595698 0 0.803209
    outer loop
      vertex -9.16664 92 2.7472
      vertex -9.04841 -3.68486e-16 2.65952
      vertex -9.04841 92 2.65952
    endloop
  endfacet
  facet normal 0.595698 0 0.803209
    outer loop
      vertex -9.04841 -3.68486e-16 2.65952
      vertex -9.16664 92 2.7472
      vertex -9.16664 -3.87957e-16 2.7472
    endloop
  endfacet
  facet normal -0.242975 0 0.970033
    outer loop
      vertex -10.4354 92 2.93541
      vertex -10.2926 -4.37689e-16 2.97118
      vertex -10.2926 92 2.97118
    endloop
  endfacet
  facet normal -0.242975 0 0.970033
    outer loop
      vertex -10.2926 -4.37689e-16 2.97118
      vertex -10.4354 92 2.93541
      vertex -10.4354 -4.29747e-16 2.93541
    endloop
  endfacet
  facet normal -0.595698 0 0.803209
    outer loop
      vertex -10.9516 92 2.65952
      vertex -10.8334 -3.87957e-16 2.7472
      vertex -10.8334 92 2.7472
    endloop
  endfacet
  facet normal -0.595698 0 0.803209
    outer loop
      vertex -10.8334 -3.87957e-16 2.7472
      vertex -10.9516 92 2.65952
      vertex -10.9516 -3.68486e-16 2.65952
    endloop
  endfacet
  facet normal -0.989176 0 0.146734
    outer loop
      vertex -11.4928 -1.43668e-16 1.64703
      vertex -11.4712 92 1.79263
      vertex -11.4928 92 1.64703
    endloop
  endfacet
  facet normal -0.989176 0 0.146734
    outer loop
      vertex -11.4712 92 1.79263
      vertex -11.4928 -1.43668e-16 1.64703
      vertex -11.4712 -1.76e-16 1.79263
    endloop
  endfacet
  facet normal -0.941542 0 0.336896
    outer loop
      vertex -11.4354 -2.07706e-16 1.93543
      vertex -11.3858 92 2.07402
      vertex -11.4354 92 1.93543
    endloop
  endfacet
  facet normal -0.941542 0 0.336896
    outer loop
      vertex -11.3858 92 2.07402
      vertex -11.4354 -2.07706e-16 1.93543
      vertex -11.3858 -2.38481e-16 2.07402
    endloop
  endfacet
  facet normal -0.857728 0 0.514103
    outer loop
      vertex -11.3229 -2.68029e-16 2.20709
      vertex -11.2472 92 2.33335
      vertex -11.3229 92 2.20709
    endloop
  endfacet
  facet normal -0.857728 0 0.514103
    outer loop
      vertex -11.2472 92 2.33335
      vertex -11.3229 -2.68029e-16 2.20709
      vertex -11.2472 -2.96064e-16 2.33335
    endloop
  endfacet
  facet normal -0.740948 0 0.671562
    outer loop
      vertex -11.1595 -3.22318e-16 2.45159
      vertex -11.0607 92 2.56066
      vertex -11.1595 92 2.45159
    endloop
  endfacet
  facet normal -0.740948 0 0.671562
    outer loop
      vertex -11.0607 92 2.56066
      vertex -11.1595 -3.22318e-16 2.45159
      vertex -11.0607 -3.46536e-16 2.56066
    endloop
  endfacet
  facet normal 0.242975 0 0.970033
    outer loop
      vertex -9.70736 92 2.97118
      vertex -9.56457 -4.29747e-16 2.93541
      vertex -9.56457 92 2.93541
    endloop
  endfacet
  facet normal 0.242975 0 0.970033
    outer loop
      vertex -9.56457 -4.29747e-16 2.93541
      vertex -9.70736 92 2.97118
      vertex -9.70736 -4.37689e-16 2.97118
    endloop
  endfacet
  facet normal 0.857728 0 -0.514103
    outer loop
      vertex 11.3229 92 0.792906
      vertex 11.2472 7.40197e-17 0.666645
      vertex 11.2472 92 0.666645
    endloop
  endfacet
  facet normal 0.857728 0 -0.514103
    outer loop
      vertex 11.2472 7.40197e-17 0.666645
      vertex 11.3229 92 0.792906
      vertex 11.3229 4.59841e-17 0.792906
    endloop
  endfacet
  facet normal 0.336896 0 -0.941542
    outer loop
      vertex 10.4354 2.07703e-16 0.0645895
      vertex 10.574 92 0.114182
      vertex 10.574 1.96691e-16 0.114182
    endloop
  endfacet
  facet normal 0.336896 0 -0.941542
    outer loop
      vertex 10.574 92 0.114182
      vertex 10.4354 2.07703e-16 0.0645895
      vertex 10.4354 92 0.0645895
    endloop
  endfacet
  facet normal 0.998795 0 0.0490694
    outer loop
      vertex 11.4928 92 1.64703
      vertex 11.5 -1.11022e-16 1.5
      vertex 11.5 92 1.5
    endloop
  endfacet
  facet normal 0.998795 0 0.0490694
    outer loop
      vertex 11.5 -1.11022e-16 1.5
      vertex 11.4928 92 1.64703
      vertex 11.4928 -1.43668e-16 1.64703
    endloop
  endfacet
  facet normal 0.0490694 0 -0.998795
    outer loop
      vertex 10 2.22045e-16 0
      vertex 10.147 92 0.00722313
      vertex 10.147 2.20441e-16 0.00722313
    endloop
  endfacet
  facet normal 0.0490694 2.21778e-16 -0.998795
    outer loop
      vertex 10.147 92 0.00722313
      vertex 10 2.22045e-16 0
      vertex 10 92 2.04281e-14
    endloop
  endfacet
  facet normal 0.514103 0 -0.857728
    outer loop
      vertex 10.7071 1.82716e-16 0.177118
      vertex 10.8334 92 0.252796
      vertex 10.8334 1.65913e-16 0.252796
    endloop
  endfacet
  facet normal 0.514103 0 -0.857728
    outer loop
      vertex 10.8334 92 0.252796
      vertex 10.7071 1.82716e-16 0.177118
      vertex 10.7071 92 0.177118
    endloop
  endfacet
  facet normal 0.514103 0 0.857728
    outer loop
      vertex 10.7071 92 2.82288
      vertex 10.8334 -3.87957e-16 2.7472
      vertex 10.8334 92 2.7472
    endloop
  endfacet
  facet normal 0.514103 0 0.857728
    outer loop
      vertex 10.8334 -3.87957e-16 2.7472
      vertex 10.7071 92 2.82288
      vertex 10.7071 -4.04761e-16 2.82288
    endloop
  endfacet
  facet normal -0.595698 0 0.803209
    outer loop
      vertex 9.04841 92 2.65952
      vertex 9.16664 -3.87957e-16 2.7472
      vertex 9.16664 92 2.7472
    endloop
  endfacet
  facet normal -0.595698 0 0.803209
    outer loop
      vertex 9.16664 -3.87957e-16 2.7472
      vertex 9.04841 92 2.65952
      vertex 9.04841 -3.68486e-16 2.65952
    endloop
  endfacet
  facet normal -0.857728 0 0.514103
    outer loop
      vertex 8.67712 -2.68029e-16 2.20709
      vertex 8.7528 92 2.33335
      vertex 8.67712 92 2.20709
    endloop
  endfacet
  facet normal -0.857728 0 0.514103
    outer loop
      vertex 8.7528 92 2.33335
      vertex 8.67712 -2.68029e-16 2.20709
      vertex 8.7528 -2.96064e-16 2.33335
    endloop
  endfacet
  facet normal 0.803209 0 -0.595698
    outer loop
      vertex 11.2472 92 0.666645
      vertex 11.1595 1.00273e-16 0.54841
      vertex 11.1595 92 0.54841
    endloop
  endfacet
  facet normal 0.803209 0 -0.595698
    outer loop
      vertex 11.1595 1.00273e-16 0.54841
      vertex 11.2472 92 0.666645
      vertex 11.2472 7.40197e-17 0.666645
    endloop
  endfacet
  facet normal 0.671562 0 -0.740948
    outer loop
      vertex 10.9516 1.46442e-16 0.340485
      vertex 11.0607 92 0.439341
      vertex 11.0607 1.24491e-16 0.439341
    endloop
  endfacet
  facet normal 0.671562 0 -0.740948
    outer loop
      vertex 11.0607 92 0.439341
      vertex 10.9516 1.46442e-16 0.340485
      vertex 10.9516 92 0.340485
    endloop
  endfacet
  facet normal 0.740948 0 -0.671562
    outer loop
      vertex 11.1595 92 0.54841
      vertex 11.0607 1.24491e-16 0.439341
      vertex 11.0607 92 0.439341
    endloop
  endfacet
  facet normal 0.740948 0 -0.671562
    outer loop
      vertex 11.0607 1.24491e-16 0.439341
      vertex 11.1595 92 0.54841
      vertex 11.1595 1.00273e-16 0.54841
    endloop
  endfacet
  facet normal 0.242975 0 -0.970033
    outer loop
      vertex 10.2926 2.15645e-16 0.0288229
      vertex 10.4354 92 0.0645895
      vertex 10.4354 2.07703e-16 0.0645895
    endloop
  endfacet
  facet normal 0.242975 0 -0.970033
    outer loop
      vertex 10.4354 92 0.0645895
      vertex 10.2926 2.15645e-16 0.0288229
      vertex 10.2926 92 0.0288229
    endloop
  endfacet
  facet normal 0.146734 0 -0.989176
    outer loop
      vertex 10.147 2.20441e-16 0.00722313
      vertex 10.2926 92 0.0288229
      vertex 10.2926 2.15645e-16 0.0288229
    endloop
  endfacet
  facet normal 0.146734 0 -0.989176
    outer loop
      vertex 10.2926 92 0.0288229
      vertex 10.147 2.20441e-16 0.00722313
      vertex 10.147 92 0.00722313
    endloop
  endfacet
  facet normal 0.427552 0 -0.903991
    outer loop
      vertex 10.574 1.96691e-16 0.114182
      vertex 10.7071 92 0.177118
      vertex 10.7071 1.82716e-16 0.177118
    endloop
  endfacet
  facet normal 0.427552 0 -0.903991
    outer loop
      vertex 10.7071 92 0.177118
      vertex 10.574 1.96691e-16 0.114182
      vertex 10.574 92 0.114182
    endloop
  endfacet
  facet normal 0.595698 0 -0.803209
    outer loop
      vertex 10.8334 1.65913e-16 0.252796
      vertex 10.9516 92 0.340485
      vertex 10.9516 1.46442e-16 0.340485
    endloop
  endfacet
  facet normal 0.595698 0 -0.803209
    outer loop
      vertex 10.9516 92 0.340485
      vertex 10.8334 1.65913e-16 0.252796
      vertex 10.8334 92 0.252796
    endloop
  endfacet
  facet normal 0.998795 0 -0.049069
    outer loop
      vertex 11.5 92 1.5
      vertex 11.4928 -7.8376e-17 1.35297
      vertex 11.4928 92 1.35297
    endloop
  endfacet
  facet normal 0.998795 0 -0.049069
    outer loop
      vertex 11.4928 -7.8376e-17 1.35297
      vertex 11.5 92 1.5
      vertex 11.5 -1.11022e-16 1.5
    endloop
  endfacet
  facet normal 0.970033 0 0.242975
    outer loop
      vertex 11.4354 92 1.93543
      vertex 11.4712 -1.76e-16 1.79263
      vertex 11.4712 92 1.79263
    endloop
  endfacet
  facet normal 0.970033 0 0.242975
    outer loop
      vertex 11.4712 -1.76e-16 1.79263
      vertex 11.4354 92 1.93543
      vertex 11.4354 -2.07706e-16 1.93543
    endloop
  endfacet
  facet normal 0.0490694 0 0.998795
    outer loop
      vertex 10 92 3
      vertex 10.147 -4.42485e-16 2.99278
      vertex 10.147 92 2.99278
    endloop
  endfacet
  facet normal 0.0490694 0 0.998795
    outer loop
      vertex 10.147 -4.42485e-16 2.99278
      vertex 10 92 3
      vertex 10 -4.44089e-16 3
    endloop
  endfacet
  facet normal -0.941544 0 0.336891
    outer loop
      vertex 8.58769 -2.22045e-16 2
      vertex 8.61418 92 2.07402
      vertex 8.58769 92 2
    endloop
  endfacet
  facet normal -0.941544 0 0.336891
    outer loop
      vertex 8.61418 92 2.07402
      vertex 8.58769 -2.22045e-16 2
      vertex 8.61418 -2.38481e-16 2.07402
    endloop
  endfacet
  facet normal -0.740948 0 0.671562
    outer loop
      vertex 8.84048 -3.22318e-16 2.45159
      vertex 8.93934 92 2.56066
      vertex 8.84048 92 2.45159
    endloop
  endfacet
  facet normal -0.740948 0 0.671562
    outer loop
      vertex 8.93934 92 2.56066
      vertex 8.84048 -3.22318e-16 2.45159
      vertex 8.93934 -3.46536e-16 2.56066
    endloop
  endfacet
  facet normal 0.903991 0 -0.427552
    outer loop
      vertex 11.3858 92 0.925976
      vertex 11.3229 4.59841e-17 0.792906
      vertex 11.3229 92 0.792906
    endloop
  endfacet
  facet normal 0.903991 0 -0.427552
    outer loop
      vertex 11.3229 4.59841e-17 0.792906
      vertex 11.3858 92 0.925976
      vertex 11.3858 1.64367e-17 0.925976
    endloop
  endfacet
  facet normal 0.941541 0 -0.336898
    outer loop
      vertex 11.4354 92 1.06457
      vertex 11.3858 1.64367e-17 0.925976
      vertex 11.3858 92 0.925976
    endloop
  endfacet
  facet normal 0.941541 0 -0.336898
    outer loop
      vertex 11.3858 1.64367e-17 0.925976
      vertex 11.4354 92 1.06457
      vertex 11.4354 -1.43379e-17 1.06457
    endloop
  endfacet
  facet normal 0.970033 0 -0.242975
    outer loop
      vertex 11.4712 92 1.20736
      vertex 11.4354 -1.43379e-17 1.06457
      vertex 11.4354 92 1.06457
    endloop
  endfacet
  facet normal 0.970033 0 -0.242975
    outer loop
      vertex 11.4354 -1.43379e-17 1.06457
      vertex 11.4712 92 1.20736
      vertex 11.4712 -4.60441e-17 1.20736
    endloop
  endfacet
  facet normal 0.989176 0 0.146734
    outer loop
      vertex 11.4712 92 1.79263
      vertex 11.4928 -1.43668e-16 1.64703
      vertex 11.4928 92 1.64703
    endloop
  endfacet
  facet normal 0.989176 0 0.146734
    outer loop
      vertex 11.4928 -1.43668e-16 1.64703
      vertex 11.4712 92 1.79263
      vertex 11.4712 -1.76e-16 1.79263
    endloop
  endfacet
  facet normal 0.740948 0 0.671562
    outer loop
      vertex 11.0607 92 2.56066
      vertex 11.1595 -3.22318e-16 2.45159
      vertex 11.1595 92 2.45159
    endloop
  endfacet
  facet normal 0.740948 0 0.671562
    outer loop
      vertex 11.1595 -3.22318e-16 2.45159
      vertex 11.0607 92 2.56066
      vertex 11.0607 -3.46536e-16 2.56066
    endloop
  endfacet
  facet normal 0.803209 0 0.595698
    outer loop
      vertex 11.1595 92 2.45159
      vertex 11.2472 -2.96064e-16 2.33335
      vertex 11.2472 92 2.33335
    endloop
  endfacet
  facet normal 0.803209 0 0.595698
    outer loop
      vertex 11.2472 -2.96064e-16 2.33335
      vertex 11.1595 92 2.45159
      vertex 11.1595 -3.22318e-16 2.45159
    endloop
  endfacet
  facet normal 0.903991 0 0.427552
    outer loop
      vertex 11.3229 92 2.20709
      vertex 11.3858 -2.38481e-16 2.07402
      vertex 11.3858 92 2.07402
    endloop
  endfacet
  facet normal 0.903991 0 0.427552
    outer loop
      vertex 11.3858 -2.38481e-16 2.07402
      vertex 11.3229 92 2.20709
      vertex 11.3229 -2.68029e-16 2.20709
    endloop
  endfacet
  facet normal 0.857728 0 0.514103
    outer loop
      vertex 11.2472 92 2.33335
      vertex 11.3229 -2.68029e-16 2.20709
      vertex 11.3229 92 2.20709
    endloop
  endfacet
  facet normal 0.857728 0 0.514103
    outer loop
      vertex 11.3229 -2.68029e-16 2.20709
      vertex 11.2472 92 2.33335
      vertex 11.2472 -2.96064e-16 2.33335
    endloop
  endfacet
  facet normal -0.242975 0 0.970033
    outer loop
      vertex 9.56457 92 2.93541
      vertex 9.70736 -4.37689e-16 2.97118
      vertex 9.70736 92 2.97118
    endloop
  endfacet
  facet normal -0.242975 0 0.970033
    outer loop
      vertex 9.70736 -4.37689e-16 2.97118
      vertex 9.56457 92 2.93541
      vertex 9.56457 -4.29747e-16 2.93541
    endloop
  endfacet
  facet normal -0.671562 0 0.740948
    outer loop
      vertex 8.93934 92 2.56066
      vertex 9.04841 -3.68486e-16 2.65952
      vertex 9.04841 92 2.65952
    endloop
  endfacet
  facet normal -0.671562 0 0.740948
    outer loop
      vertex 9.04841 -3.68486e-16 2.65952
      vertex 8.93934 92 2.56066
      vertex 8.93934 -3.46536e-16 2.56066
    endloop
  endfacet
  facet normal 0.146734 0 0.989176
    outer loop
      vertex 10.147 92 2.99278
      vertex 10.2926 -4.37689e-16 2.97118
      vertex 10.2926 92 2.97118
    endloop
  endfacet
  facet normal 0.146734 0 0.989176
    outer loop
      vertex 10.2926 -4.37689e-16 2.97118
      vertex 10.147 92 2.99278
      vertex 10.147 -4.42485e-16 2.99278
    endloop
  endfacet
  facet normal 0.427552 0 0.903991
    outer loop
      vertex 10.574 92 2.88582
      vertex 10.7071 -4.04761e-16 2.82288
      vertex 10.7071 92 2.82288
    endloop
  endfacet
  facet normal 0.427552 0 0.903991
    outer loop
      vertex 10.7071 -4.04761e-16 2.82288
      vertex 10.574 92 2.88582
      vertex 10.574 -4.18736e-16 2.88582
    endloop
  endfacet
  facet normal 0.336896 0 0.941542
    outer loop
      vertex 10.4354 92 2.93541
      vertex 10.574 -4.18736e-16 2.88582
      vertex 10.574 92 2.88582
    endloop
  endfacet
  facet normal 0.336896 0 0.941542
    outer loop
      vertex 10.574 -4.18736e-16 2.88582
      vertex 10.4354 92 2.93541
      vertex 10.4354 -4.29747e-16 2.93541
    endloop
  endfacet
  facet normal 0.989176 0 -0.146734
    outer loop
      vertex 11.4928 92 1.35297
      vertex 11.4712 -4.60441e-17 1.20736
      vertex 11.4712 92 1.20736
    endloop
  endfacet
  facet normal 0.989176 0 -0.146734
    outer loop
      vertex 11.4712 -4.60441e-17 1.20736
      vertex 11.4928 92 1.35297
      vertex 11.4928 -7.8376e-17 1.35297
    endloop
  endfacet
  facet normal 0.671562 0 0.740948
    outer loop
      vertex 10.9516 92 2.65952
      vertex 11.0607 -3.46536e-16 2.56066
      vertex 11.0607 92 2.56066
    endloop
  endfacet
  facet normal 0.671562 0 0.740948
    outer loop
      vertex 11.0607 -3.46536e-16 2.56066
      vertex 10.9516 92 2.65952
      vertex 10.9516 -3.68486e-16 2.65952
    endloop
  endfacet
  facet normal 0.941542 0 0.336896
    outer loop
      vertex 11.3858 92 2.07402
      vertex 11.4354 -2.07706e-16 1.93543
      vertex 11.4354 92 1.93543
    endloop
  endfacet
  facet normal 0.941542 0 0.336896
    outer loop
      vertex 11.4354 -2.07706e-16 1.93543
      vertex 11.3858 92 2.07402
      vertex 11.3858 -2.38481e-16 2.07402
    endloop
  endfacet
  facet normal -0.049069 0 0.998795
    outer loop
      vertex 9.85297 92 2.99278
      vertex 10 -4.44089e-16 3
      vertex 10 92 3
    endloop
  endfacet
  facet normal -0.049069 0 0.998795
    outer loop
      vertex 10 -4.44089e-16 3
      vertex 9.85297 92 2.99278
      vertex 9.85297 -4.42485e-16 2.99278
    endloop
  endfacet
  facet normal -0.336896 0 0.941542
    outer loop
      vertex 9.42597 92 2.88582
      vertex 9.56457 -4.29747e-16 2.93541
      vertex 9.56457 92 2.93541
    endloop
  endfacet
  facet normal -0.336896 0 0.941542
    outer loop
      vertex 9.56457 -4.29747e-16 2.93541
      vertex 9.42597 92 2.88582
      vertex 9.42597 -4.18736e-16 2.88582
    endloop
  endfacet
  facet normal -0.427552 0 0.903991
    outer loop
      vertex 9.2929 92 2.82288
      vertex 9.42597 -4.18736e-16 2.88582
      vertex 9.42597 92 2.88582
    endloop
  endfacet
  facet normal -0.427552 0 0.903991
    outer loop
      vertex 9.42597 -4.18736e-16 2.88582
      vertex 9.2929 92 2.82288
      vertex 9.2929 -4.04761e-16 2.82288
    endloop
  endfacet
  facet normal -0.146734 0 0.989176
    outer loop
      vertex 9.70736 92 2.97118
      vertex 9.85297 -4.42485e-16 2.99278
      vertex 9.85297 92 2.99278
    endloop
  endfacet
  facet normal -0.146734 0 0.989176
    outer loop
      vertex 9.85297 -4.42485e-16 2.99278
      vertex 9.70736 92 2.97118
      vertex 9.70736 -4.37689e-16 2.97118
    endloop
  endfacet
  facet normal -0.903991 0 0.427552
    outer loop
      vertex 8.61418 -2.38481e-16 2.07402
      vertex 8.67712 92 2.20709
      vertex 8.61418 92 2.07402
    endloop
  endfacet
  facet normal -0.903991 0 0.427552
    outer loop
      vertex 8.67712 92 2.20709
      vertex 8.61418 -2.38481e-16 2.07402
      vertex 8.67712 -2.68029e-16 2.20709
    endloop
  endfacet
  facet normal -0.803209 0 0.595698
    outer loop
      vertex 8.7528 -2.96064e-16 2.33335
      vertex 8.84048 92 2.45159
      vertex 8.7528 92 2.33335
    endloop
  endfacet
  facet normal -0.803209 0 0.595698
    outer loop
      vertex 8.84048 92 2.45159
      vertex 8.7528 -2.96064e-16 2.33335
      vertex 8.84048 -3.22318e-16 2.45159
    endloop
  endfacet
  facet normal 0.242975 0 0.970033
    outer loop
      vertex 10.2926 92 2.97118
      vertex 10.4354 -4.29747e-16 2.93541
      vertex 10.4354 92 2.93541
    endloop
  endfacet
  facet normal 0.242975 0 0.970033
    outer loop
      vertex 10.4354 -4.29747e-16 2.93541
      vertex 10.2926 92 2.97118
      vertex 10.2926 -4.37689e-16 2.97118
    endloop
  endfacet
  facet normal 0.595698 0 0.803209
    outer loop
      vertex 10.8334 92 2.7472
      vertex 10.9516 -3.68486e-16 2.65952
      vertex 10.9516 92 2.65952
    endloop
  endfacet
  facet normal 0.595698 0 0.803209
    outer loop
      vertex 10.9516 -3.68486e-16 2.65952
      vertex 10.8334 92 2.7472
      vertex 10.8334 -3.87957e-16 2.7472
    endloop
  endfacet
  facet normal -0.514103 0 0.857728
    outer loop
      vertex 9.16664 92 2.7472
      vertex 9.2929 -4.04761e-16 2.82288
      vertex 9.2929 92 2.82288
    endloop
  endfacet
  facet normal -0.514103 0 0.857728
    outer loop
      vertex 9.2929 -4.04761e-16 2.82288
      vertex 9.16664 92 2.7472
      vertex 9.16664 -3.87957e-16 2.7472
    endloop
  endfacet
endsolid OpenSCAD_Model
